<svg xmlns="http://www.w3.org/2000/svg" xmlns:xlink="http://www.w3.org/1999/xlink" xmlns:lucid="lucid" width="1760" height="882"><g transform="translate(0 -53.999999999999986)" lucid:page-tab-id="0_0"><path d="M20 405c0-2.76 2.24-5 5-5h190c2.76 0 5 2.24 5 5v70c0 2.76-2.24 5-5 5H25c-2.76 0-5-2.24-5-5z" stroke="#000" stroke-opacity="0" fill="#5abaa7"/><use xlink:href="#a" transform="matrix(1,0,0,1,20,400) translate(12.993000000000004 46.2)"/><path d="M240 405c0-2.76 2.24-5 5-5h253.25c2.76 0 5 2.24 5 5v70c0 2.76-2.24 5-5 5H245c-2.76 0-5-2.24-5-5z" stroke="#000" stroke-opacity="0" fill="#5abaa7"/><use xlink:href="#b" transform="matrix(1,0,0,1,240,400) translate(8.636999999999995 46.2)"/><path d="M1240 405c0-2.76 2.24-5 5-5h160c2.76 0 5 2.24 5 5v70c0 2.76-2.24 5-5 5h-160c-2.76 0-5-2.24-5-5z" stroke="#000" stroke-opacity="0" fill="#7ab648"/><use xlink:href="#c" transform="matrix(1,0,0,1,1240,400) translate(9.972000000000003 46.2)"/><path d="M1040 405c0-2.76 2.24-5 5-5h186.75c2.76 0 5 2.24 5 5v70c0 2.76-2.24 5-5 5H1045c-2.76 0-5-2.24-5-5z" stroke="#000" stroke-opacity="0" fill="#fcc438"/><use xlink:href="#a" transform="matrix(1,0,0,1,1040,400) translate(11.493000000000004 46.2)"/><path d="M743 870.5v59" fill="none"/><path d="M743 870.5v2.1m0 4.22v4.22m0 4.2v4.22m0 4.22v4.2m0 4.23v4.22m0 4.22v4.2m0 4.22v4.22m0 4.2v2.12M743 870.5v-.5M743 929.5v.5" stroke="#666" fill="none"/><path d="M598.8 82c0-4.42 3.6-8 8-8h520.8c4.4 0 8 3.58 8 8v26.15c0 4.4-3.6 8-8 8H606.8c-4.4 0-8-3.6-8-8z" stroke="#000" stroke-opacity="0" stroke-width="2" fill="#fff" fill-opacity="0"/><use xlink:href="#d" transform="matrix(1,0,0,1,598.8093723391463,73.99999999999999) translate(103.76925925925929 24.98777777777778)"/><use xlink:href="#e" transform="matrix(1,0,0,1,598.8093723391463,73.99999999999999) translate(204.21493827160498 24.98777777777778)"/><use xlink:href="#f" transform="matrix(1,0,0,1,598.8093723391463,73.99999999999999) translate(335.10753086419754 24.98777777777778)"/><path d="M606.32 114.77h521.76M606.35 114.77h-4.03M1128.05 114.77h4.03" stroke="#b2b2b2" stroke-width="2" fill="none"/><path d="M598.36 123.07c0-4.4 3.58-8 8-8h564.97c4.42 0 8 3.6 8 8v15.25c0 4.42-3.58 8-8 8H606.36c-4.42 0-8-3.58-8-8z" stroke="#000" stroke-opacity="0" stroke-width="2" fill="#fff" fill-opacity="0"/><use xlink:href="#g" transform="matrix(1,0,0,1,598.3573864020694,115.07333333321691) translate(174.24395061728399 16.24703703703704)"/><use xlink:href="#h" transform="matrix(1,0,0,1,598.3573864020694,115.07333333321691) translate(315.22481481481475 16.24703703703704)"/><use xlink:href="#i" transform="matrix(1,0,0,1,598.3573864020694,115.07333333321691) translate(327.6743004115226 16.24703703703704)"/><use xlink:href="#j" transform="matrix(1,0,0,1,598.3573864020694,115.07333333321691) translate(362.3883950617284 16.24703703703704)"/><use xlink:href="#k" transform="matrix(1,0,0,1,598.3573864020694,115.07333333321691) translate(379.3842798353909 16.24703703703704)"/><path d="M1420 405c0-2.76 2.24-5 5-5h310c2.76 0 5 2.24 5 5v70c0 2.76-2.24 5-5 5h-310c-2.76 0-5-2.24-5-5z" stroke="#000" stroke-width="2" fill="#7ab648"/><use xlink:href="#l" transform="matrix(1,0,0,1,1420,400) translate(24.65500000000001 44.4)"/><path d="M520 405c0-2.76 2.24-5 5-5h326.75c2.76 0 5 2.24 5 5v73.5c0 2.77-2.24 5-5 5H525c-2.76 0-5-2.23-5-5z" stroke="#000" stroke-width="2" fill="#5abaa7"/><use xlink:href="#m" transform="matrix(1,0,0,1,520,400) translate(14.730000000000027 45.9)"/><path d="M863.25 405c0-2.76 2.24-5 5-5h150c2.76 0 5 2.24 5 5v73.5c0 2.77-2.24 5-5 5h-150c-2.76 0-5-2.23-5-5z" stroke="#000" stroke-width="2" fill="#5abaa7"/><use xlink:href="#n" transform="matrix(1,0,0,1,863.25,400) translate(25.10499999999999 45.9)"/><path d="M36 300c-8.84 0-16 7.16-16 16v48c0 8.84 7.16 16 16 16h971.25c8.84 0 16-7.16 16-16v-48c0-8.84-7.16-16-16-16z" stroke="#000" stroke-width="2"/><use xlink:href="#o" transform="matrix(1,0,0,1,28,308) translate(450.275 35.6)"/><use xlink:href="#p" transform="matrix(1,0,0,1,28,308) translate(491.875 35.6)"/><path d="M1056 300c-8.84 0-16 7.16-16 16v48c0 8.84 7.16 16 16 16h148c8.84 0 16-7.16 16-16v-48c0-8.84-7.16-16-16-16z" stroke="#000" stroke-width="2"/><use xlink:href="#q" transform="matrix(1,0,0,1,1048,308) translate(67.5 35.6)"/><path d="M1266 300c-8.84 0-16 7.16-16 16v48c0 8.84 7.16 16 16 16h458c8.84 0 16-7.16 16-16v-48c0-8.84-7.16-16-16-16z" stroke="#000" stroke-width="2"/><use xlink:href="#r" transform="matrix(1,0,0,1,1258,308) translate(207.05 35.6)"/><path d="M110 485c0-2.76 2.24-5 5-5h10c2.76 0 5 2.24 5 5v150c0 2.76-2.24 5-5 5h-10c-2.76 0-5-2.24-5-5zM360 485c0-2.76 2.24-5 5-5h10c2.76 0 5 2.24 5 5v150c0 2.76-2.24 5-5 5h-10c-2.76 0-5-2.24-5-5zM678.38 488.5c0-2.75 2.23-5 5-5h10c2.76 0 5 2.25 5 5v150c0 2.77-2.24 5-5 5h-10c-2.77 0-5-2.23-5-5zM933.25 488.5c0-2.75 2.24-5 5-5h10c2.76 0 5 2.25 5 5v150c0 2.77-2.24 5-5 5h-10c-2.76 0-5-2.23-5-5zM1135.6 485c0-2.76 2.23-5 5-5h10c2.75 0 5 2.24 5 5v150c0 2.76-2.25 5-5 5h-10c-2.77 0-5-2.24-5-5zM1318.38 485c0-2.76 2.23-5 5-5h10c2.76 0 5 2.24 5 5v150c0 2.76-2.24 5-5 5h-10c-2.77 0-5-2.24-5-5zM1560 485c0-2.76 2.24-5 5-5h10c2.76 0 5 2.24 5 5v150c0 2.76-2.24 5-5 5h-10c-2.76 0-5-2.24-5-5z" stroke="#000" stroke-width="2"/><defs><path d="M74-100c89 50 337 72 327-78-8-132-168-134-251-198-46-36-87-77-87-158 0-190 253-210 408-146l-25 73c-38-17-105-31-168-31-104 0-173 93-107 164 94 102 313 99 313 289C484-48 386 9 246 12 162 13 95-2 46-25" id="s"/><path d="M200 12C109 10 89-39 89-138v-292H11v-70h78v-99l80-23v122h136v70H169v277c1 59 6 93 57 95 38 1 55-9 84-20l18 61c-35 17-77 30-128 29" id="t"/><path d="M232 12C103 12 68-68 69-198v-302h80v285c0 87 12 158 98 157 78-1 111-51 135-108v-334h80c4 166-10 350 11 500h-55l-20-79h-5c-31 50-80 91-161 91" id="u"/><path d="M276-509c50 0 69 4 105 17v-208h80v528c1 67-1 118 10 174h-54l-20-71h-4c-25 44-78 82-147 81C97 8 50-86 49-248c-1-159 77-260 227-261zM132-248c1 104 26 190 127 190 75 0 108-41 122-107v-248c-27-20-53-26-102-26-105 0-148 72-147 191" id="v"/><path d="M104-500c49 140 107 271 148 420h5c31-148 79-280 119-420h81C396-319 339-134 276 44c-20 55-46 106-82 140-28 26-82 25-117 11l14-69c34 12 54 2 79-24 17-20 32-54 43-102L12-500h92" id="w"/><path d="M144-350c0 171 67 288 232 288 43 0 79-8 109-25v-195l-164-20v-47h235v308C509-8 442 12 363 12 150 12 56-130 56-350c0-252 150-393 413-356 26 4 48 11 66 18l-21 73c-32-15-78-23-137-23-161 0-233 117-233 288" id="x"/><path d="M152-439c26-60 97-88 178-61l-17 77c-74-29-156 5-156 73V0H77v-500h56l15 61h4" id="y"/><path d="M268 12C112 12 51-93 49-250c-1-158 69-262 219-262 156 0 217 105 219 262 1 158-69 262-219 262zm136-262c0-105-32-190-136-192-91-2-136 63-136 192 0 105 33 189 136 192 91 2 136-63 136-192" id="z"/><path d="M262 12c-51 0-69-5-105-20v208H77v-700h55l15 60h4c28-43 75-72 143-72 149 0 198 89 198 252 0 161-73 272-230 272zm147-273c-1-103-28-181-130-181-75 0-107 41-122 107v248c27 20 53 30 102 29 104-2 152-86 150-203" id="A"/><path d="M63-93c59 36 240 71 234-43-5-91-121-82-179-124-34-24-62-54-62-113 0-97 59-138 155-139 66-1 112 13 154 32l-19 66c-52-26-221-63-210 39 9 83 124 74 178 118 33 27 64 57 63 118-3 103-68 149-174 151C134 13 81-3 39-25" id="B"/><path d="M378-62c56 2 101-12 135-32l20 65C494 2 428 12 359 12 150 12 58-132 56-350c-2-250 141-394 402-356 25 4 47 11 65 18l-20 73c-32-15-78-23-137-23-158 0-222 119-222 288S215-68 378-62" id="C"/><path d="M313-512c130 0 165 79 165 210V0h-80v-285c-2-94-16-155-105-157-72-1-118 46-136 100V0H77v-500h56l15 61h4c32-42 86-73 161-73" id="D"/><path d="M189 12C123 10 86-25 86-100v-600h80v577c-10 72 59 74 108 54l9 63c-18 10-66 18-94 18" id="E"/><path d="M293-58c43 0 98-19 119-40l30 58C404-9 338 12 270 12 112 10 51-92 49-250c-1-159 70-258 220-262 155-4 211 110 184 270H132c0 116 45 184 161 184zm88-247c1-92-30-137-111-137-89 0-129 46-137 137h248" id="F"/><g id="a"><use transform="matrix(0.018,0,0,0.018,0,0)" xlink:href="#s"/><use transform="matrix(0.018,0,0,0.018,9.558,0)" xlink:href="#t"/><use transform="matrix(0.018,0,0,0.018,15.66,0)" xlink:href="#u"/><use transform="matrix(0.018,0,0,0.018,25.362000000000002,0)" xlink:href="#v"/><use transform="matrix(0.018,0,0,0.018,35.046,0)" xlink:href="#w"/><use transform="matrix(0.018,0,0,0.018,43.434,0)" xlink:href="#x"/><use transform="matrix(0.018,0,0,0.018,54.449999999999996,0)" xlink:href="#y"/><use transform="matrix(0.018,0,0,0.018,60.56999999999999,0)" xlink:href="#z"/><use transform="matrix(0.018,0,0,0.018,70.21799999999999,0)" xlink:href="#u"/><use transform="matrix(0.018,0,0,0.018,79.91999999999999,0)" xlink:href="#A"/><use transform="matrix(0.018,0,0,0.018,89.65799999999999,0)" xlink:href="#B"/><use transform="matrix(0.018,0,0,0.018,97.23599999999999,0)" xlink:href="#C"/><use transform="matrix(0.018,0,0,0.018,106.88399999999999,0)" xlink:href="#z"/><use transform="matrix(0.018,0,0,0.018,116.53199999999997,0)" xlink:href="#D"/><use transform="matrix(0.018,0,0,0.018,126.37799999999999,0)" xlink:href="#t"/><use transform="matrix(0.018,0,0,0.018,132.48,0)" xlink:href="#y"/><use transform="matrix(0.018,0,0,0.018,138.6,0)" xlink:href="#z"/><use transform="matrix(0.018,0,0,0.018,148.248,0)" xlink:href="#E"/><use transform="matrix(0.018,0,0,0.018,153.504,0)" xlink:href="#E"/><use transform="matrix(0.018,0,0,0.018,158.76,0)" xlink:href="#F"/><use transform="matrix(0.018,0,0,0.018,167.904,0)" xlink:href="#y"/><path d="M-.9.9h175.82v.9H-.9z"/></g><path d="M504-321H168V0H85v-700h83v305h336v-305h83V0h-83v-321" id="G"/><path d="M101-500c50 129 110 248 149 388 32-143 91-259 137-388h86L260 11h-34L9-500h92" id="H"/><path d="M94-500h80V0H94v-500zm38-99c-31 0-55-23-55-53s24-56 55-56 58 26 58 56-28 53-58 53" id="I"/><path d="M281-58c46 1 86-17 111-36l26 61c-37 28-94 45-157 45C104 12 53-93 49-250c-5-188 108-294 299-254 22 5 42 12 60 21l-23 69c-29-16-66-28-111-28-95 0-142 64-142 192 0 110 39 189 149 192" id="J"/><path d="M623 0c4-191-10-400 10-575h-5l-38 96-182 316h-25L190-480l-36-95h-5l14 104V0H85v-700h62l219 358c12 26 21 55 35 78l31-80 209-356h65V0h-83" id="K"/><path d="M422-354c0 120-19 253 8 356h-59l-21-70h-5C315-22 265 8 189 8 98 8 39-43 39-134c0-147 152-157 302-151 10-93 1-159-99-153-57 4-110 14-148 35l-25-60c48-30 118-45 194-45 108-1 159 51 159 154zM122-142c-2 47 40 81 89 80 67-1 109-32 130-79v-83c-95-3-214-10-219 82" id="L"/><path d="M290-509c71-1 121 13 170 30V23c0 132-72 189-204 189-71 0-115-8-159-27l21-68c37 13 69 25 124 25 122 0 148-66 139-191h-4c-28 39-65 61-132 60C95 9 50-86 49-248c-1-166 78-261 241-261zM132-249c2 104 25 190 127 190 75 0 106-39 121-105v-256c-27-13-61-19-102-19-103 0-147 74-146 190" id="M"/><g id="b"><use transform="matrix(0.018,0,0,0.018,0,0)" xlink:href="#s"/><use transform="matrix(0.018,0,0,0.018,9.558,0)" xlink:href="#t"/><use transform="matrix(0.018,0,0,0.018,15.66,0)" xlink:href="#u"/><use transform="matrix(0.018,0,0,0.018,25.362000000000002,0)" xlink:href="#v"/><use transform="matrix(0.018,0,0,0.018,35.046,0)" xlink:href="#w"/><use transform="matrix(0.018,0,0,0.018,43.434,0)" xlink:href="#x"/><use transform="matrix(0.018,0,0,0.018,54.449999999999996,0)" xlink:href="#y"/><use transform="matrix(0.018,0,0,0.018,60.56999999999999,0)" xlink:href="#z"/><use transform="matrix(0.018,0,0,0.018,70.21799999999999,0)" xlink:href="#u"/><use transform="matrix(0.018,0,0,0.018,79.91999999999999,0)" xlink:href="#A"/><use transform="matrix(0.018,0,0,0.018,89.65799999999999,0)" xlink:href="#G"/><use transform="matrix(0.018,0,0,0.018,101.75399999999999,0)" xlink:href="#t"/><use transform="matrix(0.018,0,0,0.018,107.856,0)" xlink:href="#t"/><use transform="matrix(0.018,0,0,0.018,113.958,0)" xlink:href="#A"/><use transform="matrix(0.018,0,0,0.018,123.69599999999998,0)" xlink:href="#s"/><use transform="matrix(0.018,0,0,0.018,133.254,0)" xlink:href="#F"/><use transform="matrix(0.018,0,0,0.018,142.398,0)" xlink:href="#y"/><use transform="matrix(0.018,0,0,0.018,148.518,0)" xlink:href="#H"/><use transform="matrix(0.018,0,0,0.018,157.194,0)" xlink:href="#I"/><use transform="matrix(0.018,0,0,0.018,162.018,0)" xlink:href="#J"/><use transform="matrix(0.018,0,0,0.018,169.722,0)" xlink:href="#F"/><use transform="matrix(0.018,0,0,0.018,178.866,0)" xlink:href="#K"/><use transform="matrix(0.018,0,0,0.018,193.104,0)" xlink:href="#L"/><use transform="matrix(0.018,0,0,0.018,202.032,0)" xlink:href="#D"/><use transform="matrix(0.018,0,0,0.018,211.87800000000001,0)" xlink:href="#L"/><use transform="matrix(0.018,0,0,0.018,220.806,0)" xlink:href="#M"/><use transform="matrix(0.018,0,0,0.018,230.472,0)" xlink:href="#F"/><use transform="matrix(0.018,0,0,0.018,239.616,0)" xlink:href="#y"/><path d="M-.9.9h247.54v.9H-.9z"/></g><path d="M104-700h83V0h-83v-700" id="N"/><g id="c"><use transform="matrix(0.018,0,0,0.018,0,0)" xlink:href="#N"/><use transform="matrix(0.018,0,0,0.018,5.2379999999999995,0)" xlink:href="#s"/><use transform="matrix(0.018,0,0,0.018,14.796,0)" xlink:href="#t"/><use transform="matrix(0.018,0,0,0.018,20.898,0)" xlink:href="#u"/><use transform="matrix(0.018,0,0,0.018,30.6,0)" xlink:href="#v"/><use transform="matrix(0.018,0,0,0.018,40.284,0)" xlink:href="#w"/><use transform="matrix(0.018,0,0,0.018,48.672,0)" xlink:href="#x"/><use transform="matrix(0.018,0,0,0.018,59.687999999999995,0)" xlink:href="#y"/><use transform="matrix(0.018,0,0,0.018,65.80799999999999,0)" xlink:href="#z"/><use transform="matrix(0.018,0,0,0.018,75.45599999999999,0)" xlink:href="#u"/><use transform="matrix(0.018,0,0,0.018,85.15799999999999,0)" xlink:href="#A"/><use transform="matrix(0.018,0,0,0.018,94.89599999999999,0)" xlink:href="#s"/><use transform="matrix(0.018,0,0,0.018,104.45399999999998,0)" xlink:href="#F"/><use transform="matrix(0.018,0,0,0.018,113.59799999999998,0)" xlink:href="#y"/><use transform="matrix(0.018,0,0,0.018,119.71799999999999,0)" xlink:href="#H"/><use transform="matrix(0.018,0,0,0.018,128.39399999999998,0)" xlink:href="#I"/><use transform="matrix(0.018,0,0,0.018,133.218,0)" xlink:href="#J"/><use transform="matrix(0.018,0,0,0.018,140.922,0)" xlink:href="#F"/><path d="M-.9.9h151.87v.9H-.9z"/></g><path fill="#b2b2b2" d="M169-182c-1-43-94-46-97-3 18 66 151 10 154 114 3 95-165 93-204 36-6-8-10-19-12-30l50-8c3 46 112 56 116 5-17-69-150-10-154-114-4-87 153-88 188-35 5 8 8 18 10 28" id="O"/><path fill="#b2b2b2" d="M123 10C108 53 80 86 19 72V37c35 8 53-11 59-39L3-190h52l48 148c12-52 28-100 44-148h51" id="P"/><path fill="#b2b2b2" d="M137-138c1-29-70-34-71-4 15 46 118 7 119 86 1 83-164 76-172 9l43-7c4 19 20 25 44 25 33 8 57-30 24-41C81-84 22-81 20-136c-2-80 154-74 161-7" id="Q"/><path fill="#b2b2b2" d="M115-3C79 11 28 4 28-45v-112H4v-33h27l15-45h31v45h36v33H77v99c-1 23 16 31 38 25v30" id="R"/><path fill="#b2b2b2" d="M185-48c-13 30-37 53-82 52C43 2 14-33 14-96s30-98 90-98c62 0 83 45 84 108H66c0 31 8 55 39 56 18 0 30-7 34-22zm-45-69c5-46-57-63-70-21-2 6-4 13-4 21h74" id="S"/><path fill="#b2b2b2" d="M220-157c-53 9-28 100-34 157h-49v-107c1-27-5-49-29-50C55-147 81-57 75 0H25l-1-190h47c2 12-1 28 3 38 10-53 101-56 108 0 13-22 24-43 59-42 82 1 51 116 57 194h-49v-107c-1-25-5-48-29-50" id="T"/><g id="d"><use transform="matrix(0.0728395061728395,0,0,0.0728395061728395,0,0)" xlink:href="#O"/><use transform="matrix(0.0728395061728395,0,0,0.0728395061728395,17.48148148148148,0)" xlink:href="#P"/><use transform="matrix(0.0728395061728395,0,0,0.0728395061728395,32.04938271604938,0)" xlink:href="#Q"/><use transform="matrix(0.0728395061728395,0,0,0.0728395061728395,46.61728395061728,0)" xlink:href="#R"/><use transform="matrix(0.0728395061728395,0,0,0.0728395061728395,55.28518518518518,0)" xlink:href="#S"/><use transform="matrix(0.0728395061728395,0,0,0.0728395061728395,69.85308641975308,0)" xlink:href="#T"/></g><path fill="#b2b2b2" d="M84 4C32 4 15-41 15-95c0-55 18-99 73-99 29 0 47 12 58 34l2-30h48l-1 265h-49V-32C136-9 114 4 84 4zm21-34c32 0 41-29 41-66 0-36-9-64-40-64-33 0-39 30-40 65 0 43 13 65 39 65" id="U"/><path fill="#b2b2b2" d="M85 4C-2 5 27-109 22-190h50c7 57-23 150 33 157 60-5 35-97 40-157h50l1 190h-47c-2-12 1-28-3-38-12 25-28 42-61 42" id="V"/><path fill="#b2b2b2" d="M135-194c87-1 58 113 63 194h-50c-7-57 23-157-34-157-59 0-34 97-39 157H25l-1-190h47c2 12-1 28 3 38 12-26 28-41 61-42" id="W"/><path fill="#b2b2b2" d="M190-63c-7 42-38 67-86 67-59 0-84-38-90-98-12-110 154-137 174-36l-49 2c-2-19-15-32-35-32-30 0-35 28-38 64-6 74 65 87 74 30" id="X"/><g id="e"><use transform="matrix(0.0728395061728395,0,0,0.0728395061728395,0,0)" xlink:href="#O"/><use transform="matrix(0.0728395061728395,0,0,0.0728395061728395,17.48148148148148,0)" xlink:href="#S"/><use transform="matrix(0.0728395061728395,0,0,0.0728395061728395,32.04938271604938,0)" xlink:href="#U"/><use transform="matrix(0.0728395061728395,0,0,0.0728395061728395,48.00123456790123,0)" xlink:href="#V"/><use transform="matrix(0.0728395061728395,0,0,0.0728395061728395,63.95308641975308,0)" xlink:href="#S"/><use transform="matrix(0.0728395061728395,0,0,0.0728395061728395,78.52098765432098,0)" xlink:href="#W"/><use transform="matrix(0.0728395061728395,0,0,0.0728395061728395,94.47283950617283,0)" xlink:href="#X"/><use transform="matrix(0.0728395061728395,0,0,0.0728395061728395,109.04074074074072,0)" xlink:href="#S"/></g><path fill="#b2b2b2" d="M24-248c120-7 223 5 221 122C244-46 201 0 124 0H24v-248zM76-40c74 7 117-18 117-86 0-67-45-88-117-82v168" id="Y"/><path fill="#b2b2b2" d="M25-224v-37h50v37H25zM25 0v-190h50V0H25" id="Z"/><path fill="#b2b2b2" d="M133-34C117-15 103 5 69 4 32 3 11-16 11-54c-1-60 55-63 116-61 1-26-3-47-28-47-18 1-26 9-28 27l-52-2c7-38 36-58 82-57s74 22 75 68l1 82c-1 14 12 18 25 15v27c-30 8-71 5-69-32zm-48 3c29 0 43-24 42-57-32 0-66-3-65 30 0 17 8 27 23 27" id="aa"/><path fill="#b2b2b2" d="M195-6C206 82 75 100 31 46c-4-6-6-13-8-21l49-6c3 16 16 24 34 25 40 0 42-37 40-79-11 22-30 35-61 35-53 0-70-43-70-97 0-56 18-96 73-97 30 0 46 14 59 34l2-30h47zm-90-29c32 0 41-27 41-63 0-35-9-62-40-62-32 0-39 29-40 63 0 36 9 62 39 62" id="ab"/><path fill="#b2b2b2" d="M135-150c-39-12-60 13-60 57V0H25l-1-190h47c2 13-1 29 3 40 6-28 27-53 61-41v41" id="ac"/><g id="f"><use transform="matrix(0.0728395061728395,0,0,0.0728395061728395,0,0)" xlink:href="#Y"/><use transform="matrix(0.0728395061728395,0,0,0.0728395061728395,18.86543209876543,0)" xlink:href="#Z"/><use transform="matrix(0.0728395061728395,0,0,0.0728395061728395,26.14938271604938,0)" xlink:href="#aa"/><use transform="matrix(0.0728395061728395,0,0,0.0728395061728395,40.717283950617286,0)" xlink:href="#ab"/><use transform="matrix(0.0728395061728395,0,0,0.0728395061728395,56.66913580246913,0)" xlink:href="#ac"/><use transform="matrix(0.0728395061728395,0,0,0.0728395061728395,66.86666666666666,0)" xlink:href="#aa"/><use transform="matrix(0.0728395061728395,0,0,0.0728395061728395,81.43456790123457,0)" xlink:href="#T"/></g><path fill="#b2b2b2" d="M141-36C126-15 110 5 73 4 37 3 15-17 15-53c-1-64 63-63 125-63 3-35-9-54-41-54-24 1-41 7-42 31l-33-3c5-37 33-52 76-52 45 0 72 20 72 64v82c-1 20 7 32 28 27v20c-31 9-61-2-59-35zM48-53c0 20 12 33 32 33 41-3 63-29 60-74-43 2-92-5-92 41" id="ad"/><path fill="#b2b2b2" d="M115-194c53 0 69 39 70 98 0 66-23 100-70 100C84 3 66-7 56-30L54 0H23l1-261h32v101c10-23 28-34 59-34zm-8 174c40 0 45-34 45-75 0-40-5-75-45-74-42 0-51 32-51 76 0 43 10 73 51 73" id="ae"/><path fill="#b2b2b2" d="M85-194c31 0 48 13 60 33l-1-100h32l1 261h-30c-2-10 0-23-3-31C134-8 116 4 85 4 32 4 16-35 15-94c0-66 23-100 70-100zm9 24c-40 0-46 34-46 75 0 40 6 74 45 74 42 0 51-32 51-76 0-42-9-74-50-73" id="af"/><path fill="#b2b2b2" d="M84 4C-5 8 30-112 23-190h32v120c0 31 7 50 39 49 72-2 45-101 50-169h31l1 190h-30c-1-10 1-25-2-33-11 22-28 36-60 37" id="ag"/><path fill="#b2b2b2" d="M24 0v-261h32V0H24" id="ah"/><path fill="#b2b2b2" d="M206 0h-36l-40-164L89 0H53L-1-190h32L70-26l43-164h34l41 164 42-164h31" id="ai"/><path fill="#b2b2b2" d="M106-169C34-169 62-67 57 0H25v-261h32l-1 103c12-21 28-36 61-36 89 0 53 116 60 194h-32v-121c2-32-8-49-39-48" id="aj"/><path fill="#b2b2b2" d="M100-194c63 0 86 42 84 106H49c0 40 14 67 53 68 26 1 43-12 49-29l28 8c-11 28-37 45-77 45C44 4 14-33 15-96c1-61 26-98 85-98zm52 81c6-60-76-77-97-28-3 7-6 17-6 28h103" id="ak"/><path fill="#b2b2b2" d="M33 0v-38h34V0H33" id="al"/><path fill="#b2b2b2" d="M143 0L79-87 56-68V0H24v-261h32v163l83-92h37l-77 82L181 0h-38" id="am"/><path fill="#b2b2b2" d="M117-194c89-4 53 116 60 194h-32v-121c0-31-8-49-39-48C34-167 62-67 57 0H25l-1-190h30c1 10-1 24 2 32 11-22 29-35 61-36" id="an"/><g id="g"><use transform="matrix(0.04248971193415638,0,0,0.04248971193415638,0,0)" xlink:href="#ad"/><use transform="matrix(0.04248971193415638,0,0,0.04248971193415638,8.497942386831275,0)" xlink:href="#ae"/><use transform="matrix(0.04248971193415638,0,0,0.04248971193415638,16.99588477366255,0)" xlink:href="#af"/><use transform="matrix(0.04248971193415638,0,0,0.04248971193415638,25.493827160493822,0)" xlink:href="#ag"/><use transform="matrix(0.04248971193415638,0,0,0.04248971193415638,33.9917695473251,0)" xlink:href="#ah"/><use transform="matrix(0.04248971193415638,0,0,0.04248971193415638,37.34845679012345,0)" xlink:href="#ai"/><use transform="matrix(0.04248971193415638,0,0,0.04248971193415638,48.35329218106995,0)" xlink:href="#ad"/><use transform="matrix(0.04248971193415638,0,0,0.04248971193415638,56.85123456790123,0)" xlink:href="#aj"/><use transform="matrix(0.04248971193415638,0,0,0.04248971193415638,65.3491769547325,0)" xlink:href="#ak"/><use transform="matrix(0.04248971193415638,0,0,0.04248971193415638,73.84711934156377,0)" xlink:href="#ak"/><use transform="matrix(0.04248971193415638,0,0,0.04248971193415638,82.34506172839504,0)" xlink:href="#af"/><use transform="matrix(0.04248971193415638,0,0,0.04248971193415638,90.84300411522631,0)" xlink:href="#al"/><use transform="matrix(0.04248971193415638,0,0,0.04248971193415638,95.09197530864195,0)" xlink:href="#am"/><use transform="matrix(0.04248971193415638,0,0,0.04248971193415638,102.7401234567901,0)" xlink:href="#aj"/><use transform="matrix(0.04248971193415638,0,0,0.04248971193415638,111.23806584362137,0)" xlink:href="#ad"/><use transform="matrix(0.04248971193415638,0,0,0.04248971193415638,119.73600823045263,0)" xlink:href="#an"/></g><path fill="#b2b2b2" d="M32 76v-337h29V76H32" id="ao"/><use transform="matrix(0.04248971193415638,0,0,0.04248971193415638,0,0)" xlink:href="#ao" id="h"/><path fill="#b2b2b2" d="M205 0l-28-72H64L36 0H1l101-248h38L239 0h-34zm-38-99l-47-123c-12 45-31 82-46 123h93" id="ap"/><path fill="#b2b2b2" d="M115-194c55 1 70 41 70 98S169 2 115 4C84 4 66-9 55-30l1 105H24l-1-265h31l2 30c10-21 28-34 59-34zm-8 174c40 0 45-34 45-75s-6-73-45-74c-42 0-51 32-51 76 0 43 10 73 51 73" id="aq"/><path fill="#b2b2b2" d="M114-163C36-179 61-72 57 0H25l-1-190h30c1 12-1 29 2 39 6-27 23-49 58-41v29" id="ar"/><path fill="#b2b2b2" d="M24-231v-30h32v30H24zM24 0v-190h32V0H24" id="as"/><g id="i"><use transform="matrix(0.04248971193415638,0,0,0.04248971193415638,0,0)" xlink:href="#ap"/><use transform="matrix(0.04248971193415638,0,0,0.04248971193415638,10.19753086419753,0)" xlink:href="#aq"/><use transform="matrix(0.04248971193415638,0,0,0.04248971193415638,18.695473251028805,0)" xlink:href="#ar"/><use transform="matrix(0.04248971193415638,0,0,0.04248971193415638,23.751748971193415,0)" xlink:href="#as"/><use transform="matrix(0.04248971193415638,0,0,0.04248971193415638,27.10843621399177,0)" xlink:href="#ah"/></g><path fill="#b2b2b2" d="M126-127c33 6 58 20 58 59 0 88-139 92-164 29-3-8-5-16-6-25l32-3c6 27 21 44 54 44 32 0 52-15 52-46 0-38-36-46-79-43v-28c39 1 72-4 72-42 0-27-17-43-46-43-28 0-47 15-49 41l-32-3c6-42 35-63 81-64 48-1 79 21 79 65 0 36-21 52-52 59" id="at"/><path fill="#b2b2b2" d="M68-38c1 34 0 65-14 84H32c9-13 17-26 17-46H33v-38h35" id="au"/><g id="j"><use transform="matrix(0.04248971193415638,0,0,0.04248971193415638,0,0)" xlink:href="#at"/><use transform="matrix(0.04248971193415638,0,0,0.04248971193415638,8.497942386831275,0)" xlink:href="#au"/></g><path fill="#b2b2b2" d="M101-251c82-7 93 87 43 132L82-64C71-53 59-42 53-27h129V0H18c2-99 128-94 128-182 0-28-16-43-45-43s-46 15-49 41l-32-3c6-41 34-60 81-64" id="av"/><path fill="#b2b2b2" d="M101-251c68 0 85 55 85 127S166 4 100 4C33 4 14-52 14-124c0-73 17-127 87-127zm-1 229c47 0 54-49 54-102s-4-102-53-102c-51 0-55 48-55 102 0 53 5 102 54 102" id="aw"/><path fill="#b2b2b2" d="M27 0v-27h64v-190l-56 39v-29l58-41h29v221h61V0H27" id="ax"/><path fill="#b2b2b2" d="M99-251c64 0 84 50 84 122C183-37 130 33 47-8c-14-7-20-23-25-40l30-5c6 39 69 39 84 7 9-19 16-44 16-74-10 22-31 35-62 35-49 0-73-33-73-83 0-54 28-83 82-83zm-1 141c31-1 51-18 51-49 0-36-14-67-51-67-34 0-49 23-49 58 0 34 15 58 49 58" id="ay"/><g id="k"><use transform="matrix(0.04248971193415638,0,0,0.04248971193415638,0,0)" xlink:href="#av"/><use transform="matrix(0.04248971193415638,0,0,0.04248971193415638,8.497942386831275,0)" xlink:href="#aw"/><use transform="matrix(0.04248971193415638,0,0,0.04248971193415638,16.99588477366255,0)" xlink:href="#ax"/><use transform="matrix(0.04248971193415638,0,0,0.04248971193415638,25.493827160493822,0)" xlink:href="#ay"/></g><path d="M33 0v-248h34V0H33" id="az"/><path d="M127-220V0H93v-220H8v-28h204v28h-85" id="aA"/><path d="M100-194c63 0 86 42 84 106H49c0 40 14 67 53 68 26 1 43-12 49-29l28 8c-11 28-37 45-77 45C44 4 14-33 15-96c1-61 26-98 85-98zm52 81c6-60-76-77-97-28-3 7-6 17-6 28h103" id="aB"/><path d="M135-143c-3-34-86-38-87 0 15 53 115 12 119 90S17 21 10-45l28-5c4 36 97 45 98 0-10-56-113-15-118-90-4-57 82-63 122-42 12 7 21 19 24 35" id="aC"/><path d="M59-47c-2 24 18 29 38 22v24C64 9 27 4 27-40v-127H5v-23h24l9-43h21v43h35v23H59v120" id="aD"/><path d="M233-177c-1 41-23 64-60 70L243 0h-38l-65-103H63V0H30v-248c88 3 205-21 203 71zM63-129c60-2 137 13 137-47 0-61-80-42-137-45v92" id="aE"/><path d="M84 4C-5 8 30-112 23-190h32v120c0 31 7 50 39 49 72-2 45-101 50-169h31l1 190h-30c-1-10 1-25-2-33-11 22-28 36-60 37" id="aF"/><path d="M24 0v-261h32V0H24" id="aG"/><path d="M100-194c62-1 85 37 85 99 1 63-27 99-86 99S16-35 15-95c0-66 28-99 85-99zM99-20c44 1 53-31 53-75 0-43-8-75-51-75s-53 32-53 75 10 74 51 75" id="aH"/><path d="M185-189c-5-48-123-54-124 2 14 75 158 14 163 119 3 78-121 87-175 55-17-10-28-26-33-46l33-7c5 56 141 63 141-1 0-78-155-14-162-118-5-82 145-84 179-34 5 7 8 16 11 25" id="aI"/><path d="M85-194c31 0 48 13 60 33l-1-100h32l1 261h-30c-2-10 0-23-3-31C134-8 116 4 85 4 32 4 16-35 15-94c0-66 23-100 70-100zm9 24c-40 0-46 34-46 75 0 40 6 74 45 74 42 0 51-32 51-76 0-42-9-74-50-73" id="aJ"/><path d="M179-190L93 31C79 59 56 82 12 73V49c39 6 53-20 64-50L1-190h34L92-34l54-156h33" id="aK"/><path d="M143 4C61 4 22-44 18-125c-5-107 100-154 193-111 17 8 29 25 37 43l-32 9c-13-25-37-40-76-40-61 0-88 39-88 99 0 61 29 100 91 101 35 0 62-11 79-27v-45h-74v-28h105v86C228-13 192 4 143 4" id="aL"/><path d="M114-163C36-179 61-72 57 0H25l-1-190h30c1 12-1 29 2 39 6-27 23-49 58-41v29" id="aM"/><path d="M115-194c55 1 70 41 70 98S169 2 115 4C84 4 66-9 55-30l1 105H24l-1-265h31l2 30c10-21 28-34 59-34zm-8 174c40 0 45-34 45-75s-6-73-45-74c-42 0-51 32-51 76 0 43 10 73 51 73" id="aN"/><path d="M141-36C126-15 110 5 73 4 37 3 15-17 15-53c-1-64 63-63 125-63 3-35-9-54-41-54-24 1-41 7-42 31l-33-3c5-37 33-52 76-52 45 0 72 20 72 64v82c-1 20 7 32 28 27v20c-31 9-61-2-59-35zM48-53c0 20 12 33 32 33 41-3 63-29 60-74-43 2-92-5-92 41" id="aO"/><path d="M177-190C167-65 218 103 67 71c-23-6-38-20-44-43l32-5c15 47 100 32 89-28v-30C133-14 115 1 83 1 29 1 15-40 15-95c0-56 16-97 71-98 29-1 48 16 59 35 1-10 0-23 2-32h30zM94-22c36 0 50-32 50-73 0-42-14-75-50-75-39 0-46 34-46 75s6 73 46 73" id="aP"/><g id="l"><use transform="matrix(0.05,0,0,0.05,0,0)" xlink:href="#az"/><use transform="matrix(0.05,0,0,0.05,5,0)" xlink:href="#aA"/><use transform="matrix(0.05,0,0,0.05,13.950000000000001,0)" xlink:href="#aB"/><use transform="matrix(0.05,0,0,0.05,23.950000000000003,0)" xlink:href="#aC"/><use transform="matrix(0.05,0,0,0.05,32.95,0)" xlink:href="#aD"/><use transform="matrix(0.05,0,0,0.05,37.95,0)" xlink:href="#aE"/><use transform="matrix(0.05,0,0,0.05,50.900000000000006,0)" xlink:href="#aB"/><use transform="matrix(0.05,0,0,0.05,60.900000000000006,0)" xlink:href="#aC"/><use transform="matrix(0.05,0,0,0.05,69.9,0)" xlink:href="#aF"/><use transform="matrix(0.05,0,0,0.05,79.9,0)" xlink:href="#aG"/><use transform="matrix(0.05,0,0,0.05,83.85000000000001,0)" xlink:href="#aD"/><use transform="matrix(0.05,0,0,0.05,88.85000000000001,0)" xlink:href="#aA"/><use transform="matrix(0.05,0,0,0.05,97.80000000000001,0)" xlink:href="#aH"/><use transform="matrix(0.05,0,0,0.05,107.80000000000001,0)" xlink:href="#aI"/><use transform="matrix(0.05,0,0,0.05,119.80000000000001,0)" xlink:href="#aD"/><use transform="matrix(0.05,0,0,0.05,124.80000000000001,0)" xlink:href="#aF"/><use transform="matrix(0.05,0,0,0.05,134.8,0)" xlink:href="#aJ"/><use transform="matrix(0.05,0,0,0.05,144.8,0)" xlink:href="#aK"/><use transform="matrix(0.05,0,0,0.05,153.8,0)" xlink:href="#aL"/><use transform="matrix(0.05,0,0,0.05,167.8,0)" xlink:href="#aM"/><use transform="matrix(0.05,0,0,0.05,173.75,0)" xlink:href="#aH"/><use transform="matrix(0.05,0,0,0.05,183.75,0)" xlink:href="#aF"/><use transform="matrix(0.05,0,0,0.05,193.75,0)" xlink:href="#aN"/><use transform="matrix(0.05,0,0,0.05,203.75,0)" xlink:href="#aI"/><use transform="matrix(0.05,0,0,0.05,215.75,0)" xlink:href="#aD"/><use transform="matrix(0.05,0,0,0.05,220.75,0)" xlink:href="#aM"/><use transform="matrix(0.05,0,0,0.05,226.69999999999996,0)" xlink:href="#aO"/><use transform="matrix(0.05,0,0,0.05,236.69999999999996,0)" xlink:href="#aD"/><use transform="matrix(0.05,0,0,0.05,241.69999999999996,0)" xlink:href="#aB"/><use transform="matrix(0.05,0,0,0.05,251.69999999999996,0)" xlink:href="#aP"/><use transform="matrix(0.05,0,0,0.05,261.7,0)" xlink:href="#aK"/><path d="M-.9 1.25h272.5v1.32H-.9z"/></g><path d="M140-251c81 0 123 46 123 126C263-46 219 4 140 4 59 4 17-45 17-125s42-126 123-126zm0 227c63 0 89-41 89-101s-29-99-89-99c-61 0-89 39-89 99S79-25 140-24" id="aQ"/><path d="M117-194c89-4 53 116 60 194h-32v-121c0-31-8-49-39-48C34-167 62-67 57 0H25l-1-190h30c1 10-1 24 2 32 11-22 29-35 61-36" id="aR"/><path d="M190 0L58-211 59 0H30v-248h39L202-35l-2-213h31V0h-41" id="aS"/><path d="M30-248c87 1 191-15 191 75 0 78-77 80-158 76V0H30v-248zm33 125c57 0 124 11 124-50 0-59-68-47-124-48v98" id="aT"/><path d="M24-231v-30h32v30H24zM24 0v-190h32V0H24" id="aU"/><path d="M30-248c118-7 216 8 213 122C240-48 200 0 122 0H30v-248zM63-27c89 8 146-16 146-99s-60-101-146-95v194" id="aV"/><g id="m"><use transform="matrix(0.05,0,0,0.05,0,0)" xlink:href="#aE"/><use transform="matrix(0.05,0,0,0.05,12.950000000000001,0)" xlink:href="#aB"/><use transform="matrix(0.05,0,0,0.05,22.950000000000003,0)" xlink:href="#aO"/><use transform="matrix(0.05,0,0,0.05,32.95,0)" xlink:href="#aJ"/><use transform="matrix(0.05,0,0,0.05,42.95,0)" xlink:href="#aQ"/><use transform="matrix(0.05,0,0,0.05,56.95,0)" xlink:href="#aR"/><use transform="matrix(0.05,0,0,0.05,66.95,0)" xlink:href="#aG"/><use transform="matrix(0.05,0,0,0.05,70.9,0)" xlink:href="#aK"/><use transform="matrix(0.05,0,0,0.05,79.9,0)" xlink:href="#aS"/><use transform="matrix(0.05,0,0,0.05,92.85000000000001,0)" xlink:href="#aH"/><use transform="matrix(0.05,0,0,0.05,102.85000000000001,0)" xlink:href="#aR"/><use transform="matrix(0.05,0,0,0.05,112.85000000000001,0)" xlink:href="#aT"/><use transform="matrix(0.05,0,0,0.05,124.85000000000001,0)" xlink:href="#aB"/><use transform="matrix(0.05,0,0,0.05,134.85000000000002,0)" xlink:href="#aM"/><use transform="matrix(0.05,0,0,0.05,140.8,0)" xlink:href="#aC"/><use transform="matrix(0.05,0,0,0.05,149.8,0)" xlink:href="#aU"/><use transform="matrix(0.05,0,0,0.05,153.75,0)" xlink:href="#aD"/><use transform="matrix(0.05,0,0,0.05,158.75,0)" xlink:href="#aB"/><use transform="matrix(0.05,0,0,0.05,168.75,0)" xlink:href="#aR"/><use transform="matrix(0.05,0,0,0.05,178.75,0)" xlink:href="#aD"/><use transform="matrix(0.05,0,0,0.05,183.75,0)" xlink:href="#aV"/><use transform="matrix(0.05,0,0,0.05,196.7,0)" xlink:href="#aO"/><use transform="matrix(0.05,0,0,0.05,206.69999999999996,0)" xlink:href="#aD"/><use transform="matrix(0.05,0,0,0.05,211.69999999999996,0)" xlink:href="#aO"/><use transform="matrix(0.05,0,0,0.05,221.69999999999996,0)" xlink:href="#aE"/><use transform="matrix(0.05,0,0,0.05,234.64999999999998,0)" xlink:href="#aB"/><use transform="matrix(0.05,0,0,0.05,244.64999999999998,0)" xlink:href="#aN"/><use transform="matrix(0.05,0,0,0.05,254.64999999999998,0)" xlink:href="#aH"/><use transform="matrix(0.05,0,0,0.05,264.65,0)" xlink:href="#aC"/><use transform="matrix(0.05,0,0,0.05,273.65,0)" xlink:href="#aU"/><use transform="matrix(0.05,0,0,0.05,277.59999999999997,0)" xlink:href="#aD"/><use transform="matrix(0.05,0,0,0.05,282.59999999999997,0)" xlink:href="#aH"/><use transform="matrix(0.05,0,0,0.05,292.59999999999997,0)" xlink:href="#aM"/><use transform="matrix(0.05,0,0,0.05,298.54999999999995,0)" xlink:href="#aK"/><path d="M-.9 1.25h309.35v1.32H-.9z"/></g><path d="M108 0H70L1-190h34L89-25l56-165h34" id="aW"/><g id="n"><use transform="matrix(0.05,0,0,0.05,0,0)" xlink:href="#az"/><use transform="matrix(0.05,0,0,0.05,5,0)" xlink:href="#aV"/><use transform="matrix(0.05,0,0,0.05,17.950000000000003,0)" xlink:href="#aO"/><use transform="matrix(0.05,0,0,0.05,27.950000000000003,0)" xlink:href="#aD"/><use transform="matrix(0.05,0,0,0.05,32.95,0)" xlink:href="#aO"/><use transform="matrix(0.05,0,0,0.05,42.95,0)" xlink:href="#aT"/><use transform="matrix(0.05,0,0,0.05,54.95,0)" xlink:href="#aM"/><use transform="matrix(0.05,0,0,0.05,60.900000000000006,0)" xlink:href="#aH"/><use transform="matrix(0.05,0,0,0.05,70.9,0)" xlink:href="#aW"/><use transform="matrix(0.05,0,0,0.05,79.9,0)" xlink:href="#aU"/><use transform="matrix(0.05,0,0,0.05,83.85000000000001,0)" xlink:href="#aJ"/><use transform="matrix(0.05,0,0,0.05,93.85000000000001,0)" xlink:href="#aB"/><use transform="matrix(0.05,0,0,0.05,103.85000000000001,0)" xlink:href="#aM"/><path d="M-.9 1.25h111.6v1.32H-.9z"/></g><path fill="#ffeca9" d="M266 0h-40l-56-210L115 0H75L2-248h35L96-30l15-64 43-154h32l59 218 59-218h35" id="aX"/><path fill="#ffeca9" d="M100-194c63 0 86 42 84 106H49c0 40 14 67 53 68 26 1 43-12 49-29l28 8c-11 28-37 45-77 45C44 4 14-33 15-96c1-61 26-98 85-98zm52 81c6-60-76-77-97-28-3 7-6 17-6 28h103" id="aY"/><path fill="#ffeca9" d="M115-194c53 0 69 39 70 98 0 66-23 100-70 100C84 3 66-7 56-30L54 0H23l1-261h32v101c10-23 28-34 59-34zm-8 174c40 0 45-34 45-75 0-40-5-75-45-74-42 0-51 32-51 76 0 43 10 73 51 73" id="aZ"/><g id="o"><use transform="matrix(0.05,0,0,0.05,0,0)" xlink:href="#aX"/><use transform="matrix(0.05,0,0,0.05,16.599999999999998,0)" xlink:href="#aY"/><use transform="matrix(0.05,0,0,0.05,26.599999999999994,0)" xlink:href="#aZ"/></g><path fill="#ffeca9" d="M212-179c-10-28-35-45-73-45-59 0-87 40-87 99 0 60 29 101 89 101 43 0 62-24 78-52l27 14C228-24 195 4 139 4 59 4 22-46 18-125c-6-104 99-153 187-111 19 9 31 26 39 46" id="ba"/><path fill="#ffeca9" d="M24 0v-261h32V0H24" id="bb"/><path fill="#ffeca9" d="M24-231v-30h32v30H24zM24 0v-190h32V0H24" id="bc"/><path fill="#ffeca9" d="M117-194c89-4 53 116 60 194h-32v-121c0-31-8-49-39-48C34-167 62-67 57 0H25l-1-190h30c1 10-1 24 2 32 11-22 29-35 61-36" id="bd"/><path fill="#ffeca9" d="M59-47c-2 24 18 29 38 22v24C64 9 27 4 27-40v-127H5v-23h24l9-43h21v43h35v23H59v120" id="be"/><g id="p"><use transform="matrix(0.05,0,0,0.05,0,0)" xlink:href="#ba"/><use transform="matrix(0.05,0,0,0.05,12.950000000000001,0)" xlink:href="#bb"/><use transform="matrix(0.05,0,0,0.05,16.900000000000002,0)" xlink:href="#bc"/><use transform="matrix(0.05,0,0,0.05,20.85,0)" xlink:href="#aY"/><use transform="matrix(0.05,0,0,0.05,30.85,0)" xlink:href="#bd"/><use transform="matrix(0.05,0,0,0.05,40.85,0)" xlink:href="#be"/></g><path fill="#ffeca9" d="M205 0l-28-72H64L36 0H1l101-248h38L239 0h-34zm-38-99l-47-123c-12 45-31 82-46 123h93" id="bf"/><path fill="#ffeca9" d="M30-248c87 1 191-15 191 75 0 78-77 80-158 76V0H30v-248zm33 125c57 0 124 11 124-50 0-59-68-47-124-48v98" id="bg"/><path fill="#ffeca9" d="M33 0v-248h34V0H33" id="bh"/><g id="q"><use transform="matrix(0.05,0,0,0.05,0,0)" xlink:href="#bf"/><use transform="matrix(0.05,0,0,0.05,12,0)" xlink:href="#bg"/><use transform="matrix(0.05,0,0,0.05,24,0)" xlink:href="#bh"/></g><path fill="#ffeca9" d="M185-189c-5-48-123-54-124 2 14 75 158 14 163 119 3 78-121 87-175 55-17-10-28-26-33-46l33-7c5 56 141 63 141-1 0-78-155-14-162-118-5-82 145-84 179-34 5 7 8 16 11 25" id="bi"/><path fill="#ffeca9" d="M114-163C36-179 61-72 57 0H25l-1-190h30c1 12-1 29 2 39 6-27 23-49 58-41v29" id="bj"/><path fill="#ffeca9" d="M108 0H70L1-190h34L89-25l56-165h34" id="bk"/><path fill="#ffeca9" d="M96-169c-40 0-48 33-48 73s9 75 48 75c24 0 41-14 43-38l32 2c-6 37-31 61-74 61-59 0-76-41-82-99-10-93 101-131 147-64 4 7 5 14 7 22l-32 3c-4-21-16-35-41-35" id="bl"/><g id="r"><use transform="matrix(0.05,0,0,0.05,0,0)" xlink:href="#bi"/><use transform="matrix(0.05,0,0,0.05,12,0)" xlink:href="#aY"/><use transform="matrix(0.05,0,0,0.05,22,0)" xlink:href="#bj"/><use transform="matrix(0.05,0,0,0.05,27.950000000000003,0)" xlink:href="#bk"/><use transform="matrix(0.05,0,0,0.05,36.95,0)" xlink:href="#bc"/><use transform="matrix(0.05,0,0,0.05,40.900000000000006,0)" xlink:href="#bl"/><use transform="matrix(0.05,0,0,0.05,49.900000000000006,0)" xlink:href="#aY"/></g></defs></g></svg>